<svg xmlns="http://www.w3.org/2000/svg" xmlns:xlink="http://www.w3.org/1999/xlink" aria-hidden="true" role="img" class="iconify iconify--logos" width="31.88" height="32" preserveAspectRatio="xMidYMid meet" viewBox="0 0 256 257"><path fill="#FF3E00" d="M210.483 135.816c-.001 8.378-6.783 15.161-15.161 15.161s-15.161-6.783-15.161-15.161c0-8.378 6.783-15.161 15.161-15.161s15.161 6.783 15.161 15.161Z"></path><path fill="#FF3E00" d="M128 0C57.308 0 0 57.307 0 128c0 70.692 57.308 128 128 128c70.692 0 128-57.308 128-128C256 57.307 198.692 0 128 0Zm0 240.969c-62.259 0-112.969-50.71-112.969-112.969S65.741 15.031 128 15.031S240.969 65.741 240.969 128S190.259 240.969 128 240.969Z"></path></svg>
